<?xml version="1.0" encoding="utf-8"?>
<!-- Generator: Adobe Illustrator 16.0.0, SVG Export Plug-In . SVG Version: 6.00 Build 0)  -->
<!DOCTYPE svg PUBLIC "-//W3C//DTD SVG 1.1//EN" "http://www.w3.org/Graphics/SVG/1.1/DTD/svg11.dtd">
<svg version="1.1" id="レイヤー_1" xmlns="http://www.w3.org/2000/svg" xmlns:xlink="http://www.w3.org/1999/xlink" x="0px"
	 y="0px" width="237.176px" height="355.738px" viewBox="137.963 26.829 237.176 355.738"
	 enable-background="new 137.963 26.829 237.176 355.738" xml:space="preserve">
<g>
	<path d="M256,381.747L256,381.747c90.932,0,147.456-98.304,101.99-176.947L256,27.853L154.01,204.8
		C108.544,283.443,165.069,381.747,256,381.747z M217.498,273.203L256,206.029l38.502,66.764
		c17.204,29.901-4.096,66.766-38.502,66.766S200.294,302.694,217.498,273.203z"/>
	<g>
		<path d="M256,382.566c49.152,0,91.341-29.9,110.592-74.547c15.565-36.455,8.602-75.776-10.649-109.363
			c-32.768-56.935-65.945-114.279-98.714-171.213c-0.409-0.819-1.229-0.819-1.638,0c-32.768,56.524-65.536,113.049-97.895,169.984
			c-20.07,34.816-26.214,72.089-11.469,110.592C163.021,353.484,208.077,381.747,256,382.566c1.229,0,1.229-2.048,0-2.048
			c-52.019-1.229-95.437-33.178-111.821-82.739c-11.469-34.406-2.867-69.223,14.746-99.533
			c28.672-49.562,57.344-99.533,86.016-149.095c3.687-6.553,7.373-12.697,11.059-19.251c1.229-2.048-1.229-1.639-0.41-0.819
			c1.638,2.458,2.867,5.325,4.505,7.783c13.518,23.756,27.443,47.513,40.961,70.86c15.154,26.215,30.31,52.429,45.465,79.053
			c14.336,24.576,26.215,47.923,26.624,77.414C373.965,328.09,318.259,380.519,256,380.519
			C254.771,380.519,254.771,382.566,256,382.566z"/>
		<path d="M218.317,273.613c9.421-16.385,18.841-32.359,27.853-48.743c2.867-4.506,10.65-15.565,9.011-18.022
			c4.097,6.963,8.192,14.336,12.288,21.299c11.059,19.251,29.082,41.778,31.949,64.308c3.686,30.31-26.625,49.971-53.658,45.465
			C216.269,332.596,206.029,297.779,218.317,273.613c0.41-1.229-1.229-2.049-1.639-1.229
			c-27.033,54.067,49.971,95.847,80.282,43.418c11.469-19.661,1.639-38.912-8.192-56.115
			c-10.649-18.022-20.889-36.455-31.539-54.477c-0.409-0.819-1.229-0.819-1.638,0c-12.698,22.119-25.805,44.646-38.502,66.765
			C215.859,273.613,217.498,274.842,218.317,273.613z"/>
	</g>
</g>
</svg>
