<?xml version="1.0" encoding="utf-8"?>
<!-- Generator: Adobe Illustrator 16.0.0, SVG Export Plug-In . SVG Version: 6.00 Build 0)  -->
<!DOCTYPE svg PUBLIC "-//W3C//DTD SVG 1.1//EN" "http://www.w3.org/Graphics/SVG/1.1/DTD/svg11.dtd">
<svg version="1.1" id="レイヤー_1" xmlns="http://www.w3.org/2000/svg" xmlns:xlink="http://www.w3.org/1999/xlink" x="0px"
	 y="0px" width="256px" height="256px" viewBox="0 0 256 256" enable-background="new 0 0 256 256" xml:space="preserve">
<g>
	<path fill="#070506" d="M51.499,120.46c0-17.252,0.027-34.504-0.042-51.755c-0.007-1.811,0.331-2.485,2.297-2.378
		c3.337,0.186,6.694-0.041,10.037,0.081c2.355,0.084,3.113-0.972,3.022-3.17c-0.131-3.178-0.029-6.366-0.185-9.54
		c-0.115-2.304,0.804-3.087,3.083-3.057c9.627,0.118,19.257,0.141,28.886,0.134c23.866-0.014,47.734-0.067,71.598-0.101
		c3.892-0.004,3.919,0.021,3.902,3.925c-0.011,3.013-0.003,6.026-0.124,9.037c-0.084,2.087,0.764,2.82,2.832,2.73
		c3.343-0.142,6.701,0,10.046-0.117c1.893-0.068,2.495,0.695,2.438,2.52c-0.105,3.345,0.049,6.701-0.063,10.045
		c-0.062,1.858,0.62,2.574,2.464,2.528c3.181-0.076,6.366-0.027,9.547-0.02c3.263,0.004,3.271,0.008,3.271,3.412
		c0.003,22.946,0,45.893,0,68.838c0,11.139-0.056,22.279,0.042,33.415c0.021,2.411-0.732,3.281-3.178,3.142
		c-3.257-0.187-6.529,0.006-9.795-0.066c-1.738-0.036-2.396,0.669-2.354,2.39c0.082,3.351-0.081,6.705,0.081,10.049
		c0.106,2.233-0.706,2.864-2.891,2.857c-20.515-0.067-41.033-0.043-61.551-0.043c-13.315,0-26.632-0.039-39.947,0.043
		c-2.128,0.013-3.038-0.49-2.896-2.792c0.189-3.002,0.049-6.026,0.044-9.042c-0.006-3.354-0.08-3.433-3.321-3.437
		c-3.097-0.007-6.202-0.104-9.293,0.035c-2.055,0.092-2.906-0.595-2.819-2.704c0.137-3.344,0.027-6.696,0.168-10.042
		c0.086-2.016-0.551-2.911-2.703-2.802c-3.426,0.172-6.866,0.03-10.289,0.227c-1.882,0.11-2.365-0.438-2.356-2.339
		C51.53,155.131,51.499,137.797,51.499,120.46z"/>
	<path fill="#673B1B" d="M66.634,142.82c-0.025-6.548-0.048-13.093-0.074-19.642c-0.405-6.401-0.34-12.804-0.03-19.208
		c0.993-0.831,2.201-0.714,3.358-0.714c23.172-0.018,46.35-0.312,69.514,0.125c10.616,0.201,21.233,0.159,31.847,0.374
		c1.16,0.022,2.361-0.107,3.368,0.69c0.333,0.535,0.228,1.131,0.228,1.705c0.004,11.736,0.004,23.467,0.004,35.199
		c0,0.496,0.048,1.005-0.178,1.475c-0.977,0.852-2.187,0.744-3.345,0.744c-33.785,0.019-67.567,0.019-101.352,0.001
		C68.819,143.566,67.609,143.686,66.634,142.82z"/>
	<path fill="#E89416" d="M66.634,142.82c10.88-0.022,21.759-0.058,32.64-0.062c25.109-0.01,50.218-0.004,75.327-0.004
		c0.291,0.054,0.33,0.348,0.499,0.521c0.004,5.695,0.009,11.392,0.013,17.083c-0.903,0.581-1.927,0.468-2.925,0.487
		c-18.997,0.391-37.995,0.331-56.994,0.323c-7.285-0.004-14.569-0.086-21.852,0.023c-8.12,0.118-16.224-0.548-24.338-0.354
		c-0.838,0.021-1.686,0.026-2.403-0.523C66.144,154.483,66.154,148.648,66.634,142.82z"/>
	<path fill="#673B1B" d="M66.579,104.068c-0.006,6.37-0.012,12.741-0.019,19.111c-0.49-0.447-0.423-1.041-0.443-1.618
		c-0.246-6.622,0.511-13.259-0.476-19.868c-0.152-1.014,0.304-2.11,0.479-3.168c0.465-4.378,0.078-8.769,0.22-13.156
		c0.032-0.979-0.232-1.987,0.219-2.94c0.125-1.386,1.109-1.454,2.178-1.452c2.92,0.012,5.842,0.023,8.764-0.002
		c2.651-0.019,3.577-0.976,2.975-3.542c-0.817-3.479,0.255-6.927-0.09-10.383c-0.044-0.434,0.209-0.992,0.817-1.12
		c0.806,0.899,0.715,2.015,0.729,3.091c0.037,2.508-0.004,5.014,0.018,7.521c0.034,3.776,0.335,4.069,4.204,4.105
		c1.672,0.015,3.346,0.074,5.014-0.012c20.539-1.07,41.094-0.22,61.639-0.48c5.296-0.066,4.896,0.188,4.921-4.917
		c0.008-2.004-0.029-4.009,0.021-6.015c0.024-0.992-0.046-2.027,0.761-2.817c0.984,0.864,0.563,2.012,0.567,3.043
		c0.004,3.157,0.017,6.319-0.124,9.472c-0.076,1.701,0.619,2.102,2.188,2.085c4.487-0.048,8.976,0.043,13.463,0.079
		c0.445,5.675,0.351,11.357,0.051,17.037c-1.328,1.008-2.888,0.703-4.361,0.703c-31.689,0.019-63.377,0.015-95.066,0.015
		c-0.921,0-1.84-0.006-2.761,0.004c-4.193,0.043-4.193,0.043-5.287,4.124C67.064,103.392,66.844,103.74,66.579,104.068z"/>
	<path fill="#683A1B" d="M66.598,160.315c0.413,0.043,0.83,0.124,1.243,0.124c35.006,0.004,70.007,0.001,105.013-0.004
		c0.752,0,1.505-0.049,2.258-0.077c-0.48,1.295-1.6,0.979-2.558,0.983c-3.766,0.021-7.529-0.006-11.293,0.015
		c-2.386,0.015-2.957,0.711-2.47,3.075c0.609,2.959-0.627,5.909,0.074,8.915c0.259,1.11-0.786,2.157-2.269,2.09
		c-0.499-0.023-1.002,0-1.507,0c-23.34,0-46.683,0.001-70.023,0c-3.983,0-4.418-0.406-4.361-4.482
		c0.034-2.418-0.199-4.835,0.188-7.259c0.222-1.391-0.264-2.371-2.035-2.331c-3.343,0.083-6.69,0.013-10.039-0.015
		C67.938,161.345,66.902,161.598,66.598,160.315z"/>
	<path fill="#E89416" d="M158.506,66.411c-0.005,4.183-0.082,8.368,0.011,12.549c0.035,1.639-0.465,2.153-2.124,2.13
		c-6.278-0.088-12.56-0.037-18.837-0.037c-12.894,0-25.789-0.029-38.681,0.014c-4.765,0.019-9.527,0.241-14.291,0.306
		c-3.196,0.043-3.51-0.31-3.485-3.388c0.032-4.016,0.07-8.035,0.104-12.053c1.248-0.078,2.499-0.22,3.746-0.222
		c23.237-0.012,46.478-0.015,69.717,0C155.972,65.711,157.365,65.423,158.506,66.411z"/>
	<path fill="#E89314" d="M66.579,104.068c-0.138-5.927-0.138-5.923,5.863-5.927c34.05-0.025,68.1-0.049,102.148-0.074
		c0.325-0.014,0.333,0.332,0.53,0.464c-0.017,1.827-0.036,3.655-0.053,5.484c-0.089,0.238-0.252,0.397-0.499,0.457
		c-9.632,0.008-19.266,0.212-28.892-0.014c-25.782-0.604-51.565-0.091-77.348-0.287C67.747,104.167,67.162,104.103,66.579,104.068z"
		/>
	<path fill="#62411D" d="M174.568,104.471c0.164-0.151,0.333-0.307,0.499-0.459c0.012,13.087,0.021,26.175,0.032,39.261
		c-0.169-0.174-0.333-0.347-0.499-0.52C174.589,129.991,174.576,117.232,174.568,104.471z"/>
	<path fill="#62411D" d="M175.12,98.53c-0.174-0.154-0.353-0.309-0.53-0.464c0.003-5.661,0.007-11.318,0.01-16.975
		c0.843,0.493,0.524,1.326,0.527,2.021C175.146,88.252,175.127,93.389,175.12,98.53z"/>
</g>
<path fill="#53402B" d="M67.768,84.729c0.004,4.579,0.024,9.154,0.004,13.73c-0.002,0.801,0.26,1.683-0.445,2.364
	c-0.008-4.744-0.021-9.488-0.021-14.232C67.303,85.939,67.177,85.24,67.768,84.729z"/>
</svg>
