<?xml version="1.0" encoding="utf-8"?>
<!-- Generator: Adobe Illustrator 16.0.0, SVG Export Plug-In . SVG Version: 6.00 Build 0)  -->
<!DOCTYPE svg PUBLIC "-//W3C//DTD SVG 1.1//EN" "http://www.w3.org/Graphics/SVG/1.1/DTD/svg11.dtd">
<svg version="1.1" id="レイヤー_1" xmlns="http://www.w3.org/2000/svg" xmlns:xlink="http://www.w3.org/1999/xlink" x="0px"
	 y="0px" width="370.911px" height="290.174px" viewBox="70.542 59.71 370.911 290.174"
	 enable-background="new 70.542 59.71 370.911 290.174" xml:space="preserve">
<path d="M372.444,84.146h-76.354V59.71h-80.177v24.435h-76.359c-17.271,0-31.275,13.958-31.348,31.216h295.6
	C403.725,98.108,389.726,84.146,372.444,84.146z"/>
<path d="M429.521,178.544h-25.714v-15.601h8.114c7.527,0,13.645-6.107,13.645-13.644s-6.117-13.649-13.645-13.649H100.093
	c-7.542,0-13.645,6.107-13.645,13.649c0,7.537,6.103,13.644,13.645,13.644h8.11v15.601H82.48c-6.585,0-11.938,5.343-11.938,11.947
	c0,6.59,5.353,11.938,11.938,11.938h25.727v38.612c0.073,17.253,14.077,31.216,31.348,31.216h130.74
	c3.021-46.34,41.565-83.013,88.656-83.013c17.075,0,33.022,4.829,46.575,13.18h23.989c6.604,0,11.938-5.348,11.938-11.938
	C441.458,183.888,436.124,178.544,429.521,178.544z"/>
<path d="M358.951,206.338c-39.627,0-71.762,32.149-71.762,71.785s32.135,71.762,71.762,71.762c39.645,0,71.771-32.126,71.771-71.762
	S398.596,206.338,358.951,206.338z M358.951,331.754c-29.601,0-53.617-24.018-53.617-53.627c0-29.609,24.017-53.621,53.617-53.621
	c29.627,0,53.625,24.007,53.625,53.617S388.578,331.754,358.951,331.754z"/>
<path d="M332.408,309.402c2.631,2.248,5.558,4.143,8.656,5.652l3.423-7.031c-2.517-1.219-4.879-2.762-7.014-4.578L332.408,309.402z"
	/>
<path d="M320.576,292.659c1.219,3.235,2.862,6.312,4.86,9.13l6.381-4.516c-1.616-2.284-2.949-4.773-3.938-7.386L320.576,292.659z"/>
<path d="M332.49,258.053l-6.221-4.738c-2.099,2.762-3.842,5.78-5.175,8.96l7.209,3.022
	C329.387,262.723,330.793,260.283,332.49,258.053z"/>
<path d="M325.741,278.123c0-1.602,0.104-3.199,0.337-4.756l-7.732-1.102c-0.287,1.92-0.419,3.891-0.419,5.848
	c0,1.493,0.073,2.995,0.232,4.47l7.777-0.837C325.814,280.558,325.741,279.352,325.741,278.123z"/>
<path d="M369.004,309.785l2.367,7.45c3.309-1.033,6.453-2.499,9.393-4.347l-4.168-6.621
	C374.225,307.76,371.662,308.943,369.004,309.785z"/>
<path d="M383.076,300.961l5.68,5.361c2.371-2.49,4.429-5.307,6.107-8.329l-6.826-3.796
	C386.658,296.65,385.006,298.917,383.076,300.961z"/>
<path d="M352.429,310.695l-1.538,7.664c2.64,0.532,5.361,0.811,8.061,0.811c0.755,0,1.511-0.027,2.257-0.064l-0.446-7.814
	C357.99,311.433,355.146,311.236,352.429,310.695z"/>
<path d="M333.501,245.947l4.843,6.125c2.211-1.752,4.614-3.217,7.172-4.328l-3.181-7.154
	C339.181,241.982,336.213,243.785,333.501,245.947z"/>
<path d="M358.951,237.022v0.132c-2.239,0-4.497,0.105-6.686,0.473l1.27,7.714c1.771-0.292,3.6-0.382,5.411-0.382v33.164h33.228
	c0,2.816-0.346,5.616-1.056,8.301l7.573,1.957c0.859-3.331,1.297-6.79,1.297-10.258h0.063
	C400.052,255.422,381.651,237.022,358.951,237.022z"/>
</svg>
