<?xml version="1.0" encoding="utf-8"?>
<!-- Generator: Adobe Illustrator 16.0.0, SVG Export Plug-In . SVG Version: 6.00 Build 0)  -->
<!DOCTYPE svg PUBLIC "-//W3C//DTD SVG 1.1//EN" "http://www.w3.org/Graphics/SVG/1.1/DTD/svg11.dtd">
<svg version="1.1" id="レイヤー_1" xmlns="http://www.w3.org/2000/svg" xmlns:xlink="http://www.w3.org/1999/xlink" x="0px"
	 y="0px" width="370.916px" height="290.174px" viewBox="70.538 59.71 370.916 290.174"
	 enable-background="new 70.538 59.71 370.916 290.174" xml:space="preserve">
<path d="M372.449,84.146h-76.358V59.71h-80.182v24.435h-76.354c-17.276,0-31.275,13.958-31.362,31.216h295.604
	C403.72,98.108,389.721,84.146,372.449,84.146z"/>
<path d="M429.516,178.544h-25.719v-15.601h8.11c7.532,0,13.645-6.107,13.645-13.644s-6.112-13.649-13.645-13.649H100.083
	c-7.527,0-13.644,6.107-13.644,13.649c0,7.537,6.117,13.644,13.644,13.644h8.11v15.601H82.475c-6.594,0-11.938,5.343-11.938,11.947
	c0,6.59,5.343,11.938,11.938,11.938h25.718v38.612c0.087,17.253,14.086,31.216,31.362,31.216h130.74
	c3.021-46.34,41.557-83.013,88.651-83.013c17.075,0,33.027,4.829,46.562,13.18h23.998c6.599,0,11.946-5.348,11.946-11.938
	C441.462,183.888,436.115,178.544,429.516,178.544z"/>
<path d="M358.946,206.338c-39.627,0-71.767,32.149-71.767,71.785s32.14,71.762,71.767,71.762c39.645,0,71.775-32.126,71.775-71.762
	S398.591,206.338,358.946,206.338z M358.946,331.754c-29.605,0-53.616-24.012-53.616-53.627c0-29.609,24.011-53.616,53.616-53.616
	c29.618,0,53.612,24.007,53.612,53.616C412.559,307.736,388.564,331.754,358.946,331.754z"/>
<path d="M332.49,258.053l-6.23-4.738c-2.089,2.762-3.832,5.78-5.17,8.96l7.214,3.022
	C329.382,262.723,330.793,260.283,332.49,258.053z"/>
<path d="M345.507,247.744l-3.168-7.149c-3.153,1.397-6.135,3.195-8.843,5.361l4.848,6.13
	C340.546,250.32,342.949,248.855,345.507,247.744z"/>
<path d="M358.955,237.022v0.132c-2.248,0-4.506,0.1-6.708,0.473l1.27,7.714c1.779-0.292,3.609-0.382,5.43-0.382v33.164h-33.219
	c0-1.606,0.114-3.199,0.337-4.756l-7.751-1.102c-0.272,1.92-0.409,3.891-0.409,5.848v0.01h-0.077
	c0,22.701,18.409,41.092,41.11,41.092c22.687,0,41.096-18.391,41.096-41.092S381.643,237.022,358.955,237.022z"/>
</svg>
